<svg viewBox="0 0 19.9998 9.6297" xmlns="http://www.w3.org/2000/svg" xmlns:xlink="http://www.w3.org/1999/xlink" width="19.999817" height="9.629700" fill="none" customFrame="#000000">
	<g id="keyboard-arrow-right">
		<path id="Path" d="M19.7558 4.22568L15.7742 0.244013C15.5358 0.00575645 15.1775 -0.0655052 14.8661 0.0634481C14.5548 0.192401 14.3517 0.496183 14.3517 0.83318L14.3517 3.35651C14.3517 3.47157 14.2584 3.56485 14.1433 3.56485L1.25 3.56485C0.559644 3.56485 8.45442e-17 4.12449 0 4.81485C-8.45442e-17 5.5052 0.559644 6.06485 1.25 6.06485L14.1433 6.06485C14.2584 6.06485 14.3517 6.15812 14.3517 6.27318L14.3517 8.79651C14.3517 9.13351 14.5548 9.43729 14.8661 9.56625C15.1775 9.6952 15.5358 9.62394 15.7742 9.38568L19.7558 5.40401C20.0812 5.0786 20.0812 4.5511 19.7558 4.22568Z" fill="rgb(255,255,255)" fill-rule="nonzero" />
	</g>
</svg>
