<svg viewBox="0 0 28 28" xmlns="http://www.w3.org/2000/svg" xmlns:xlink="http://www.w3.org/1999/xlink" width="28.000000" height="28.000000" fill="none">
	<rect id="mdi:account-alert-outline" width="28.000000" height="28.000000" x="0.000000" y="0.000000" fill="rgb(255,255,255)" fill-opacity="0" />
	<path id="Vector" d="M23.3334 14L23.3334 8.16669L25.6667 8.16669L25.6667 15.1667L23.3334 15.1667M23.3334 19.8334L25.6667 19.8334L25.6667 17.5L23.3334 17.5M11.6667 15.1667C14.7817 15.1667 21 16.73 21 19.8334L21 23.3334L2.33337 23.3334L2.33337 19.8334C2.33337 16.73 8.55171 15.1667 11.6667 15.1667ZM11.6667 4.66669C12.9044 4.66669 14.0914 5.15835 14.9665 6.03352C15.8417 6.90869 16.3334 8.09568 16.3334 9.33335C16.3334 10.571 15.8417 11.758 14.9665 12.6332C14.0914 13.5084 12.9044 14 11.6667 14C10.429 14 9.24205 13.5084 8.36688 12.6332C7.49171 11.758 7.00004 10.571 7.00004 9.33335C7.00004 8.09568 7.49171 6.90869 8.36688 6.03352C9.24205 5.15835 10.429 4.66669 11.6667 4.66669ZM11.6667 17.3834C8.20171 17.3834 4.55004 19.0867 4.55004 19.8334L4.55004 21.1167L18.7834 21.1167L18.7834 19.8334C18.7834 19.0867 15.1317 17.3834 11.6667 17.3834ZM11.6667 6.88335C11.0169 6.88335 10.3938 7.14148 9.9343 7.60094C9.47483 8.06041 9.21671 8.68357 9.21671 9.33335C9.21671 9.98313 9.47483 10.6063 9.9343 11.0658C10.3938 11.5252 11.0169 11.7834 11.6667 11.7834C12.3165 11.7834 12.9397 11.5252 13.3991 11.0658C13.8586 10.6063 14.1167 9.98313 14.1167 9.33335C14.1167 8.68357 13.8586 8.06041 13.3991 7.60094C12.9397 7.14148 12.3165 6.88335 11.6667 6.88335Z" fill="rgb(0,0,0)" fill-rule="nonzero" />
</svg>
