<svg viewBox="0 0 28 28" xmlns="http://www.w3.org/2000/svg" xmlns:xlink="http://www.w3.org/1999/xlink" width="28.000000" height="28.000000" fill="none">
	<rect id="akar-icons:search" width="28.000000" height="28.000000" x="0.000000" y="0.000000" fill="rgb(255,255,255)" fill-opacity="0" />
	<path id="Vector" d="M24.5 24.5L19.2664 19.257M19.2622 19.2621C17.4024 21.1219 14.8801 22.1666 12.25 22.1666C9.61998 22.1666 7.09763 21.1219 5.2379 19.2621C3.37816 17.4024 2.33337 14.88 2.33337 12.25C2.33337 9.61992 3.37816 7.09757 5.2379 5.23784C7.09763 3.3781 9.61998 2.33331 12.25 2.33331C14.8801 2.33331 17.4024 3.3781 19.2622 5.23784C21.1219 7.09757 22.1667 9.61992 22.1667 12.25C22.1667 14.88 21.1219 17.4024 19.2622 19.2621Z" fill-rule="nonzero" stroke="rgb(0,0,0)" stroke-linecap="round" stroke-width="2.000000" />
</svg>
