<svg viewBox="0 0 61 62" xmlns="http://www.w3.org/2000/svg" xmlns:xlink="http://www.w3.org/1999/xlink" width="61.000000" height="62.000000" fill="none">
	<defs>
		<clipPath id="clipPath_0">
			<rect width="61.000000" height="62.000000" x="0.000000" y="0.000000" fill="rgb(255,255,255)" />
		</clipPath>
	</defs>
	<rect id="6625065aaabd00c3125e1885_Group%201000017719.svg fill" width="61.000000" height="62.000000" x="0.000000" y="0.000000" />
	<g id="6625065aaabd00c3125e1885_Group%201000017719.svg" clip-path="url(#clipPath_0)" customFrame="url(#clipPath_0)">
		<rect id="6625065aaabd00c3125e1885_Group%201000017719.svg" width="61.000000" height="62.000000" x="0.000000" y="0.000000" />
		<g id="Group" opacity="0.200000003">
			<path id="Vector" d="M60.5 30.9351C60.5 14.3703 47.1297 1 30.5649 1C13.9351 1 0.5 14.3703 0.5 30.9351C0.5 47.5649 13.9351 61 30.5649 61C47.1297 61 60.5 47.5649 60.5 30.9351ZM30.5649 61L30.5649 1M56.5303 16L4.48919 16M56.6973 45.6351L4.32216 45.6351M0.662162 31L60.3378 31" fill-rule="nonzero" stroke="rgb(255,255,255)" stroke-linecap="round" stroke-linejoin="round" stroke-width="1.000000" />
			<path id="Vector" d="M45.5 30.9351C45.5 14.3703 38.8157 1 30.5324 1C22.2168 1 15.5 14.3703 15.5 30.9351C15.5 47.5649 22.2168 61 30.5324 61C38.8157 61 45.5 47.5649 45.5 30.9351Z" fill-rule="nonzero" stroke="rgb(255,255,255)" stroke-linecap="round" stroke-linejoin="round" stroke-width="1.000000" />
		</g>
	</g>
</svg>
