<svg viewBox="0 0 15 16.25" xmlns="http://www.w3.org/2000/svg" xmlns:xlink="http://www.w3.org/1999/xlink" width="15.000000" height="16.250000" fill="none" customFrame="#000000">
	<path id="Vector" d="M13.75 1.25L11.875 1.25L11.875 0.625C11.875 0.45924 11.8092 0.30027 11.6919 0.18306C11.5747 0.06585 11.4158 0 11.25 0C11.0842 0 10.9253 0.06585 10.8081 0.18306C10.6908 0.30027 10.625 0.45924 10.625 0.625L10.625 1.25L4.375 1.25L4.375 0.625C4.375 0.45924 4.30915 0.30027 4.19194 0.18306C4.07473 0.06585 3.91576 0 3.75 0C3.58424 0 3.42527 0.06585 3.30806 0.18306C3.19085 0.30027 3.125 0.45924 3.125 0.625L3.125 1.25L1.25 1.25C0.91848 1.25 0.60054 1.3817 0.36612 1.61612C0.1317 1.85054 0 2.16848 0 2.5L0 15C0 15.3315 0.1317 15.6495 0.36612 15.8839C0.60054 16.1183 0.91848 16.25 1.25 16.25L13.75 16.25C14.0815 16.25 14.3995 16.1183 14.6339 15.8839C14.8683 15.6495 15 15.3315 15 15L15 2.5C15 2.16848 14.8683 1.85054 14.6339 1.61612C14.3995 1.3817 14.0815 1.25 13.75 1.25ZM3.125 2.5L3.125 3.125C3.125 3.29076 3.19085 3.44973 3.30806 3.56694C3.42527 3.68415 3.58424 3.75 3.75 3.75C3.91576 3.75 4.07473 3.68415 4.19194 3.56694C4.30915 3.44973 4.375 3.29076 4.375 3.125L4.375 2.5L10.625 2.5L10.625 3.125C10.625 3.29076 10.6908 3.44973 10.8081 3.56694C10.9253 3.68415 11.0842 3.75 11.25 3.75C11.4158 3.75 11.5747 3.68415 11.6919 3.56694C11.8092 3.44973 11.875 3.29076 11.875 3.125L11.875 2.5L13.75 2.5L13.75 5L1.25 5L1.25 2.5L3.125 2.5ZM13.75 15L1.25 15L1.25 6.25L13.75 6.25L13.75 15Z" fill="rgb(255,255,255)" fill-rule="nonzero" />
</svg>
